<svg width="32" height="32" viewBox="0 0 32 32" fill="none" xmlns="http://www.w3.org/2000/svg">
<path d="M23.5 16C23.5 11.8579 20.1421 8.5 16 8.5C11.8579 8.5 8.5 11.8579 8.5 16C8.5 19.7435 11.2426 22.8462 14.8281 23.4089V18.168H12.9238V16H14.8281V14.3477C14.8281 12.468 15.9478 11.4297 17.661 11.4297C18.4815 11.4297 19.3398 11.5762 19.3398 11.5762V13.4219H18.3941C17.4624 13.4219 17.1719 14 17.1719 14.5931V16H19.252L18.9194 18.168H17.1719V23.4089C20.7574 22.8462 23.5 19.7435 23.5 16Z" fill="white"/>
<rect x="0.5" y="0.5" width="31" height="31" rx="15.5" stroke="#E7E5F0" stroke-opacity="0.35"/>
</svg>
