<svg width="32" height="32" viewBox="0 0 32 32" fill="none" xmlns="http://www.w3.org/2000/svg">
<path fill-rule="evenodd" clip-rule="evenodd" d="M10.7332 12.0159C10.7332 11.3148 11.3022 10.7458 12.0076 10.7458C12.7099 10.7458 13.2813 11.3148 13.2813 12.0159C13.2813 12.7178 12.7099 13.2868 12.0076 13.2868C11.3022 13.2868 10.7332 12.7178 10.7332 12.0159ZM18.6985 14.0746C17.6892 14.0746 16.9935 14.5953 16.6731 15.12L16.6204 15.2125H16.59V14.2495H14.4847V21.297H16.6781V17.8117C16.6781 16.8922 16.8527 16.0015 17.9962 16.0015C19.0816 16.0015 19.1348 16.9759 19.1373 17.7783L19.1374 21.297H21.334V17.4316L21.3304 17.1357C21.2857 15.384 20.8061 14.0746 18.6985 14.0746ZM13.107 14.2496H10.9081V21.2971H13.107V14.2496Z" fill="white"/>
<rect x="0.5" y="0.5" width="31" height="31" rx="15.5" stroke="#E7E5F0" stroke-opacity="0.35"/>
</svg>
